<svg width="40" height="40" viewBox="0 0 40 40" fill="none" xmlns="http://www.w3.org/2000/svg">
  <path d="M20 8C14.4772 8 10 12.4772 10 18C10 23.5228 14.4772 28 20 28C25.5228 28 30 23.5228 30 18C30 12.4772 25.5228 8 20 8Z" fill="#FFD700"/>
  <path d="M20 10C15.5817 10 12 13.5817 12 18C12 22.4183 15.5817 26 20 26C24.4183 26 28 22.4183 28 18C28 13.5817 24.4183 10 20 10Z" fill="#000000"/>
  <path d="M34 13L30 15M30 21L34 23M6 13L10 15M10 21L6 23" stroke="#FFD700" stroke-width="2" stroke-linecap="round"/>
</svg>
